<svg width="7" height="15" viewBox="0 0 7 15" fill="none" xmlns="http://www.w3.org/2000/svg">
<path d="M6 14.476L1.92 14.476L1.92 13.956C1.92 13.8387 1.97467 13.764 2.084 13.732L2.44 13.676C2.35467 13.6013 2.27733 13.524 2.208 13.444C2.136 13.364 2.07467 13.2787 2.024 13.188C1.97067 13.0947 1.92933 12.996 1.9 12.892C1.87067 12.7853 1.856 12.6707 1.856 12.548C1.856 12.4173 1.87467 12.2973 1.912 12.188C1.94933 12.0787 2.00267 11.9827 2.072 11.9C2.14133 11.8147 2.22533 11.7413 2.324 11.68C2.42267 11.6187 2.53333 11.568 2.656 11.528C2.51467 11.4667 2.39333 11.3893 2.292 11.296C2.19067 11.2027 2.108 11.0987 2.044 10.984C1.98 10.8693 1.93333 10.748 1.904 10.62C1.872 10.4893 1.856 10.3573 1.856 10.224C1.856 10.0053 1.89067 9.81067 1.96 9.64C2.02933 9.46667 2.13067 9.32133 2.264 9.204C2.39467 9.084 2.556 8.99333 2.748 8.932C2.94 8.87067 3.15867 8.84 3.404 8.84L6 8.84L6 9.7L3.404 9.7C3.116 9.7 2.9 9.76267 2.756 9.888C2.60933 10.0107 2.536 10.1933 2.536 10.436C2.536 10.5453 2.55467 10.648 2.592 10.744C2.62933 10.84 2.684 10.924 2.756 10.996C2.828 11.068 2.91867 11.1253 3.028 11.168C3.13467 11.208 3.26 11.228 3.404 11.228L6 11.228L6 12.088L3.404 12.088C3.10533 12.088 2.88667 12.148 2.748 12.268C2.60667 12.388 2.536 12.564 2.536 12.796C2.536 12.956 2.57733 13.104 2.66 13.24C2.74 13.376 2.85067 13.5013 2.992 13.616L6 13.616L6 14.476ZM3.5 5.15937C3.356 5.15937 3.22267 5.18071 3.1 5.22337C2.97467 5.26337 2.86667 5.32337 2.776 5.40337C2.68267 5.48337 2.61067 5.58337 2.56 5.70337C2.50667 5.82071 2.48 5.95671 2.48 6.11137C2.48 6.42337 2.56933 6.66871 2.748 6.84737C2.92667 7.02604 3.17733 7.13937 3.5 7.18737L3.5 5.15937ZM4.028 7.21137C4.26 7.20071 4.46133 7.16471 4.632 7.10337C4.8 7.04204 4.94 6.96071 5.052 6.85937C5.164 6.75537 5.248 6.63271 5.304 6.49137C5.35733 6.34737 5.384 6.18737 5.384 6.01137C5.384 5.84337 5.36533 5.69804 5.328 5.57537C5.288 5.45271 5.24533 5.34604 5.2 5.25537C5.152 5.16471 5.10933 5.08737 5.072 5.02337C5.032 4.95937 5.012 4.90071 5.012 4.84737C5.012 4.77804 5.03867 4.72471 5.092 4.68737L5.408 4.44337C5.528 4.54471 5.62933 4.65937 5.712 4.78737C5.79467 4.91537 5.86267 5.05137 5.916 5.19537C5.96667 5.33937 6.00267 5.48737 6.024 5.63937C6.048 5.79137 6.06 5.93937 6.06 6.08337C6.06 6.36604 6.01333 6.62871 5.92 6.87137C5.824 7.11137 5.684 7.32071 5.5 7.49937C5.316 7.67537 5.088 7.81404 4.816 7.91537C4.544 8.01404 4.23067 8.06337 3.876 8.06337C3.59333 8.06337 3.32933 8.01937 3.084 7.93137C2.83867 7.84071 2.62533 7.71271 2.444 7.54737C2.26267 7.37937 2.12 7.17671 2.016 6.93937C1.90933 6.69937 1.856 6.42871 1.856 6.12737C1.856 5.87671 1.89733 5.64471 1.98 5.43137C2.06 5.21804 2.17867 5.03404 2.336 4.87937C2.49333 4.72471 2.68667 4.60471 2.916 4.51937C3.14267 4.43137 3.40133 4.38737 3.692 4.38737C3.82533 4.38737 3.91467 4.40204 3.96 4.43137C4.00533 4.46071 4.028 4.51404 4.028 4.59137L4.028 7.21137ZM2.924 0.981375C2.76933 1.10137 2.66133 1.23337 2.6 1.37737C2.53867 1.52137 2.508 1.67737 2.508 1.84537C2.508 2.18137 2.632 2.44404 2.88 2.63337C3.12533 2.82271 3.48933 2.91737 3.972 2.91737C4.22267 2.91737 4.43733 2.89604 4.616 2.85337C4.792 2.81071 4.936 2.74937 5.048 2.66937C5.16 2.58937 5.24133 2.49204 5.292 2.37737C5.34267 2.26271 5.368 2.13337 5.368 1.98937C5.368 1.77071 5.32133 1.58271 5.228 1.42537C5.132 1.26537 4.99733 1.11737 4.824 0.981374L2.924 0.981375ZM0.0799993 0.121375L6 0.121374L6 0.641374C6 0.756041 5.94533 0.829374 5.836 0.861375L5.392 0.937375C5.592 1.10804 5.75333 1.30271 5.876 1.52137C5.99867 1.73737 6.06 1.98937 6.06 2.27737C6.06 2.50671 6.01467 2.71471 5.924 2.90137C5.83067 3.08804 5.696 3.24804 5.52 3.38137C5.344 3.51471 5.12667 3.61871 4.868 3.69337C4.60667 3.76537 4.308 3.80137 3.972 3.80137C3.668 3.80137 3.38667 3.76137 3.128 3.68137C2.86933 3.59871 2.64533 3.48137 2.456 3.32937C2.264 3.17737 2.11467 2.99337 2.008 2.77737C1.89867 2.55871 1.844 2.31471 1.844 2.04537C1.844 1.80537 1.88267 1.60137 1.96 1.43337C2.03467 1.26537 2.14 1.11471 2.276 0.981375L0.0799993 0.981375L0.0799993 0.121375Z" fill="#151F32"/>
</svg>
