<svg xmlns="http://www.w3.org/2000/svg" width="24" height="19" fill="none" style=""><rect id="backgroundrect" width="100%" height="100%" x="0" y="0" fill="none" stroke="none"/>

<g class="currentLayer" style=""><title>Layer 1</title><path d="M16.1714 0.976128C15.833 0.62368 15.3004 0.62368 14.962 0.976128C14.6351 1.31667 14.6351 1.88344 14.962 2.22319L21.0942 8.61091H0.858746C0.387035 8.61091 -8.39233e-05 9.00147 -8.39233e-05 9.49283C-8.39233e-05 9.98419 0.387035 10.3874 0.858746 10.3874H21.0942L14.962 16.7633C14.6351 17.1157 14.6351 17.6833 14.962 18.023C15.3004 18.3755 15.833 18.3755 16.1714 18.023L23.7553 10.1231C24.0822 9.78257 24.0822 9.21579 23.7553 8.87605L16.1714 0.976128Z" fill="#FCD3AC" id="svg_1" class="selected" transform="rotate(-179.70506286621094 12.000195503234863,9.49958324432373) "/></g></svg>